<svg width="200" height="200" viewBox="0 0 200 200" fill="none" xmlns="http://www.w3.org/2000/svg">
<g id="Group 8">
<rect id="Rectangle" x="100" y="107" width="100" height="100" transform="rotate(-180 100 107)" fill="#2C6269"/>
<path id="Combined Shape Copy" fill-rule="evenodd" clip-rule="evenodd" d="M100 207C155.228 207 200 162.228 200 107C200 51.7715 155.228 7 100 7C44.7715 7 0 51.7715 0 107C0 162.228 44.7715 207 100 207ZM100 140C118.225 140 133 125.225 133 107C133 88.7746 118.225 74 100 74C81.7746 74 67 88.7746 67 107C67 125.225 81.7746 140 100 140Z" fill="#004047"/>
<path id="Combined Shape" fill-rule="evenodd" clip-rule="evenodd" d="M100 63H0V67H100V63ZM100 71H0V75H100V71ZM0 79H100V83H0V79ZM100 87H0V91H100V87ZM0 95H100V99H0V95ZM100 103H0V107H100V103Z" fill="#F67E7E"/>
<path id="Combined Shape_2" fill-rule="evenodd" clip-rule="evenodd" d="M0 -37H4V-33H0V-37ZM11 -37H7V-33H11V-37ZM11 -29H7V-25H11V-29ZM7 -21H11V-17H7V-21ZM11 -13H7V-9H11V-13ZM7 -5H11V-1H7V-5ZM11 3H7V7H11V3ZM14 -37H18V-33H14V-37ZM14 -29H18V-25H14V-29ZM18 -21H14V-17H18V-21ZM14 -13H18V-9H14V-13ZM18 -5H14V-1H18V-5ZM14 3H18V7H14V3ZM0 -29H4V-25H0V-29ZM21 -37H25V-33H21V-37ZM21 -29H25V-25H21V-29ZM25 -21H21V-17H25V-21ZM21 -13H25V-9H21V-13ZM25 -5H21V-1H25V-5ZM21 3H25V7H21V3ZM0 -21H4V-17H0V-21ZM28 -37H32V-33H28V-37ZM28 -29H32V-25H28V-29ZM32 -21H28V-17H32V-21ZM28 -13H32V-9H28V-13ZM32 -5H28V-1H32V-5ZM28 3H32V7H28V3ZM0 -13H4V-9H0V-13ZM35 -37H39V-33H35V-37ZM35 -29H39V-25H35V-29ZM39 -21H35V-17H39V-21ZM35 -13H39V-9H35V-13ZM39 -5H35V-1H39V-5ZM35 3H39V7H35V3ZM0 -5H4V-1H0V-5ZM42 -37H46V-33H42V-37ZM42 -29H46V-25H42V-29ZM46 -21H42V-17H46V-21ZM42 -13H46V-9H42V-13ZM46 -5H42V-1H46V-5ZM42 3H46V7H42V3ZM0 3H4V7H0V3ZM49 -37H53V-33H49V-37ZM49 -29H53V-25H49V-29ZM53 -21H49V-17H53V-21ZM49 -13H53V-9H49V-13ZM53 -5H49V-1H53V-5ZM49 3H53V7H49V3Z" fill="#79C8C7"/>
</g>
</svg>
